<?xml version="1.0" encoding="UTF-8"?>
<!DOCTYPE svg PUBLIC "-//W3C//DTD SVG 1.1//EN" "http://www.w3.org/Graphics/SVG/1.1/DTD/svg11.dtd">
<svg xmlns="http://www.w3.org/2000/svg" version="1.1" width="500px" height="500px" style="shape-rendering:geometricPrecision; text-rendering:geometricPrecision; image-rendering:optimizeQuality; fill-rule:evenodd; clip-rule:evenodd" xmlns:xlink="http://www.w3.org/1999/xlink">
<g><path style="opacity:0.997" fill="#f1f1f3" d="M 291.5,175.5 C 271.164,175.667 250.831,175.5 230.5,175C 213.369,149.105 189.369,138.438 158.5,143C 130.85,150.316 113.683,167.816 107,195.5C 106.992,201.495 106.158,207.329 104.5,213C 106.165,217.386 105.831,221.552 103.5,225.5C 104.751,226.631 105.751,227.964 106.5,229.5C 105.365,235.158 105.365,240.824 106.5,246.5C 105.325,246.281 104.325,246.614 103.5,247.5C 103.624,248.107 103.957,248.44 104.5,248.5C 105.478,248.811 106.145,249.478 106.5,250.5C 102.726,254.805 101.56,259.805 103,265.5C 103.259,269.799 104.759,273.466 107.5,276.5C 107.575,279.206 107.908,281.873 108.5,284.5C 108.791,290.923 108.458,297.256 107.5,303.5C 95.6366,304.588 83.97,306.755 72.5,310C 71.695,311.113 71.0283,312.279 70.5,313.5C 66.8937,322.822 65.7271,332.489 67,342.5C 72.6675,359.337 77.8342,376.337 82.5,393.5C 82.5,394.5 82.5,395.5 82.5,396.5C 72.3194,396.173 62.3194,396.506 52.5,397.5C 51.8333,397.833 51.1667,398.167 50.5,398.5C 10.8092,346.7 15.1426,298.867 63.5,255C 69.335,250.66 75.0017,246.16 80.5,241.5C 56.1295,209.642 51.6295,174.976 67,137.5C 90.7496,87.5419 129.916,67.0419 184.5,76C 228.293,88.1497 261.126,113.983 283,153.5C 286.695,160.548 289.528,167.881 291.5,175.5 Z"/></g>
<g><path style="opacity:0.981" fill="#dedede" d="M 336.5,125.5 C 337.5,125.5 338.5,125.5 339.5,125.5C 338.005,129.839 335.171,133.173 331,135.5C 330.477,130.88 332.31,127.547 336.5,125.5 Z"/></g>
<g><path style="opacity:0.976" fill="#dedede" d="M 350.5,125.5 C 353.166,125.066 354.333,126.066 354,128.5C 346.636,136.198 338.97,143.531 331,150.5C 330.365,148.365 330.699,146.365 332,144.5C 338.369,138.298 344.536,131.965 350.5,125.5 Z"/></g>
<g><path style="opacity:0.85" fill="#dcdcdc" d="M 379.5,125.5 C 380.922,125.709 382.255,126.209 383.5,127C 373.5,137 363.5,147 353.5,157C 349.586,157.816 348.753,156.649 351,153.5C 361.005,144.661 370.505,135.328 379.5,125.5 Z"/></g>
<g><path style="opacity:1" fill="#dcdde2" d="M 291.5,175.5 C 330.004,175.168 368.337,175.501 406.5,176.5C 346.5,176.5 286.5,176.5 226.5,176.5C 216.868,159.992 202.535,149.825 183.5,146C 146.18,142.743 121.68,158.91 110,194.5C 108.554,212.444 108.054,230.444 108.5,248.5C 107.039,247.314 105.705,247.314 104.5,248.5C 103.957,248.44 103.624,248.107 103.5,247.5C 104.325,246.614 105.325,246.281 106.5,246.5C 105.365,240.824 105.365,235.158 106.5,229.5C 105.751,227.964 104.751,226.631 103.5,225.5C 105.831,221.552 106.165,217.386 104.5,213C 106.158,207.329 106.992,201.495 107,195.5C 113.683,167.816 130.85,150.316 158.5,143C 189.369,138.438 213.369,149.105 230.5,175C 250.831,175.5 271.164,175.667 291.5,175.5 Z"/></g>
<g><path style="opacity:1" fill="#a9adc9" d="M 226.5,176.5 C 222.5,176.5 218.5,176.5 214.5,176.5C 216.969,175.683 219.635,175.183 222.5,175C 211.86,159.521 197.193,151.021 178.5,149.5C 176.22,147.777 173.553,147.111 170.5,147.5C 170.667,173.169 170.5,198.835 170,224.5C 169.832,198.997 169.332,173.663 168.5,148.5C 132.666,153.667 113.999,174.334 112.5,210.5C 111.51,216.645 111.177,222.978 111.5,229.5C 131.167,229.5 150.833,229.5 170.5,229.5C 170.5,238.5 170.5,247.5 170.5,256.5C 169.209,256.737 168.209,256.404 167.5,255.5C 168.29,254.391 168.79,253.058 169,251.5C 169.5,244.508 169.666,237.508 169.5,230.5C 150.5,230.5 131.5,230.5 112.5,230.5C 112.181,235.363 112.514,240.03 113.5,244.5C 111.795,247.287 110.628,246.954 110,243.5C 109.802,245.382 109.302,247.048 108.5,248.5C 108.054,230.444 108.554,212.444 110,194.5C 121.68,158.91 146.18,142.743 183.5,146C 202.535,149.825 216.868,159.992 226.5,176.5 Z"/></g>
<g><path style="opacity:0.923" fill="#dedede" d="M 365.5,125.5 C 367.686,125.511 368.519,126.511 368,128.5C 358.833,137.667 349.667,146.833 340.5,156C 338.975,157.009 337.308,157.509 335.5,157.5C 335.351,156.448 335.517,155.448 336,154.5C 346.392,145.273 356.226,135.607 365.5,125.5 Z"/></g>
<g><path style="opacity:0.919" fill="#dcdcdc" d="M 395.5,125.5 C 396.473,125.987 397.473,126.487 398.5,127C 388.446,137.054 378.446,147.054 368.5,157C 366.926,157.699 365.593,157.365 364.5,156C 374.728,145.604 385.062,135.437 395.5,125.5 Z"/></g>
<g><path style="opacity:1" fill="#ecf4fd" d="M 168.5,148.5 C 168.5,174.167 168.5,199.833 168.5,225.5C 149.833,225.5 131.167,225.5 112.5,225.5C 112.5,220.5 112.5,215.5 112.5,210.5C 113.999,174.334 132.666,153.667 168.5,148.5 Z"/></g>
<g><path style="opacity:1" fill="#edf4fd" d="M 178.5,149.5 C 197.193,151.021 211.86,159.521 222.5,175C 219.635,175.183 216.969,175.683 214.5,176.5C 212.801,176.34 211.134,176.506 209.5,177C 208.748,177.671 208.414,178.504 208.5,179.5C 207.833,179.5 207.5,179.833 207.5,180.5C 206.596,181.209 206.263,182.209 206.5,183.5C 205.691,185.292 205.191,187.292 205,189.5C 195.458,200.04 186.291,210.873 177.5,222C 176.552,222.483 175.552,222.649 174.5,222.5C 174.5,198.167 174.5,173.833 174.5,149.5C 175.833,149.5 177.167,149.5 178.5,149.5 Z"/></g>
<g><path style="opacity:0.838" fill="#dcdcdc" d="M 409.5,125.5 C 412.686,125.974 413.186,127.307 411,129.5C 401.5,137.667 392.667,146.5 384.5,156C 382.975,157.009 381.308,157.509 379.5,157.5C 379.351,156.448 379.517,155.448 380,154.5C 389.728,144.604 399.562,134.937 409.5,125.5 Z"/></g>
<g><path style="opacity:0.912" fill="#d9d9d9" d="M 411.5,138.5 C 413.914,139.777 414.081,141.443 412,143.5C 407.833,147.667 403.667,151.833 399.5,156C 397.726,157.756 396.059,157.756 394.5,156C 400.37,150.298 406.036,144.465 411.5,138.5 Z"/></g>
<g><path style="opacity:1" fill="#dcdde3" d="M 178.5,149.5 C 177.167,149.5 175.833,149.5 174.5,149.5C 174.5,173.833 174.5,198.167 174.5,222.5C 174.5,223.5 174.5,224.5 174.5,225.5C 185.167,225.5 195.833,225.5 206.5,225.5C 206.5,226.5 206.5,227.5 206.5,228.5C 197.932,228.102 189.599,228.769 181.5,230.5C 179.167,230.5 176.833,230.5 174.5,230.5C 174.5,254.5 174.5,278.5 174.5,302.5C 173.5,302.5 172.5,302.5 171.5,302.5C 171.5,288.833 171.5,275.167 171.5,261.5C 173.023,259.414 172.69,257.748 170.5,256.5C 170.5,247.5 170.5,238.5 170.5,229.5C 150.833,229.5 131.167,229.5 111.5,229.5C 111.177,222.978 111.51,216.645 112.5,210.5C 112.5,215.5 112.5,220.5 112.5,225.5C 131.167,225.5 149.833,225.5 168.5,225.5C 168.5,199.833 168.5,174.167 168.5,148.5C 169.332,173.663 169.832,198.997 170,224.5C 170.5,198.835 170.667,173.169 170.5,147.5C 173.553,147.111 176.22,147.777 178.5,149.5 Z"/></g>
<g><path style="opacity:0.976" fill="#3c4a74" d="M 450.5,177.5 C 371.499,177.333 292.499,177.5 213.5,178C 214.737,178.232 215.737,178.732 216.5,179.5C 214.833,179.5 213.167,179.5 211.5,179.5C 210.652,178.375 209.652,178.375 208.5,179.5C 208.414,178.504 208.748,177.671 209.5,177C 211.134,176.506 212.801,176.34 214.5,176.5C 218.5,176.5 222.5,176.5 226.5,176.5C 286.5,176.5 346.5,176.5 406.5,176.5C 407.577,175.982 408.744,175.648 410,175.5C 423.652,176.123 437.152,176.79 450.5,177.5 Z"/></g>
<g><path style="opacity:1" fill="#1a2c5c" d="M 450.5,177.5 C 450.5,178.167 450.5,178.833 450.5,179.5C 450.5,180.167 450.167,180.5 449.5,180.5C 449.167,180.5 448.833,180.5 448.5,180.5C 448.082,179.778 447.416,179.278 446.5,179C 427.827,178.434 409.16,178.6 390.5,179.5C 349.833,179.5 309.167,179.5 268.5,179.5C 251.167,179.5 233.833,179.5 216.5,179.5C 215.737,178.732 214.737,178.232 213.5,178C 292.499,177.5 371.499,177.333 450.5,177.5 Z"/></g>
<g><path style="opacity:1" fill="#2f3a71" d="M 211.5,179.5 C 210.989,215.664 210.989,251.997 211.5,288.5C 211.5,293.167 211.5,297.833 211.5,302.5C 210.167,302.5 208.833,302.5 207.5,302.5C 207.5,261.833 207.5,221.167 207.5,180.5C 207.5,179.833 207.833,179.5 208.5,179.5C 209.652,178.375 210.652,178.375 211.5,179.5 Z"/></g>
<g><path style="opacity:1" fill="#55689e" d="M 268.5,179.5 C 309.167,179.5 349.833,179.5 390.5,179.5C 380.833,180.167 371.167,180.833 361.5,181.5C 312.167,181.5 262.833,181.5 213.5,181.5C 231.264,180.821 249.597,180.154 268.5,179.5 Z"/></g>
<g><path style="opacity:1" fill="#3d5088" d="M 448.5,180.5 C 419.506,181.231 390.506,181.564 361.5,181.5C 371.167,180.833 380.833,180.167 390.5,179.5C 409.16,178.6 427.827,178.434 446.5,179C 447.416,179.278 448.082,179.778 448.5,180.5 Z"/></g>
<g><path style="opacity:1" fill="#264293" d="M 448.5,180.5 C 448.833,180.5 449.167,180.5 449.5,180.5C 449.5,181.167 449.167,181.5 448.5,181.5C 447.244,181.461 446.244,181.961 445.5,183C 447.493,232.283 448.159,281.783 447.5,331.5C 395.5,331.5 343.5,331.5 291.5,331.5C 290.167,331.5 288.833,331.5 287.5,331.5C 286.167,331.5 284.833,331.5 283.5,331.5C 283.832,322.475 283.498,313.475 282.5,304.5C 281.817,304.137 281.15,303.804 280.5,303.5C 257.673,302.502 234.673,302.169 211.5,302.5C 211.5,297.833 211.5,293.167 211.5,288.5C 212.25,252.994 212.917,217.327 213.5,181.5C 262.833,181.5 312.167,181.5 361.5,181.5C 390.506,181.564 419.506,181.231 448.5,180.5 Z"/></g>
<g><path style="opacity:1" fill="#314d9f" d="M 218.5,185.5 C 232.833,185.5 247.167,185.5 261.5,185.5C 261.5,224.167 261.5,262.833 261.5,301.5C 247.167,301.5 232.833,301.5 218.5,301.5C 218.5,262.833 218.5,224.167 218.5,185.5 Z"/></g>
<g><path style="opacity:1" fill="#f7fbfd" d="M 206.5,183.5 C 206.5,197.5 206.5,211.5 206.5,225.5C 195.833,225.5 185.167,225.5 174.5,225.5C 174.5,224.5 174.5,223.5 174.5,222.5C 175.552,222.649 176.552,222.483 177.5,222C 186.291,210.873 195.458,200.04 205,189.5C 205.191,187.292 205.691,185.292 206.5,183.5 Z"/></g>
<g><path style="opacity:1" fill="#e2e6ee" d="M 272.5,194.5 C 282.506,194.334 292.506,194.5 302.5,195C 302.957,195.414 303.291,195.914 303.5,196.5C 293.188,197.499 282.855,197.832 272.5,197.5C 272.5,196.5 272.5,195.5 272.5,194.5 Z"/></g>
<g><path style="opacity:1" fill="#dadfed" d="M 223.5,194.5 C 229.833,194.5 236.167,194.5 242.5,194.5C 242.5,195.5 242.5,196.5 242.5,197.5C 236.491,197.666 230.491,197.499 224.5,197C 223.748,196.329 223.414,195.496 223.5,194.5 Z"/></g>
<g><path style="opacity:1" fill="#e3e5ee" d="M 271.5,200.5 C 278.167,200.5 284.833,200.5 291.5,200.5C 291.5,201.5 291.5,202.5 291.5,203.5C 284.833,203.5 278.167,203.5 271.5,203.5C 271.5,202.5 271.5,201.5 271.5,200.5 Z"/></g>
<g><path style="opacity:1" fill="#e3e7f3" d="M 223.5,201.5 C 232.833,201.5 242.167,201.5 251.5,201.5C 251.5,202.5 251.5,203.5 251.5,204.5C 242.494,204.666 233.494,204.5 224.5,204C 223.748,203.329 223.414,202.496 223.5,201.5 Z"/></g>
<g><path style="opacity:1" fill="#dd8892" d="M 299.5,200.5 C 319.5,200.5 339.5,200.5 359.5,200.5C 359.5,201.5 359.5,202.5 359.5,203.5C 339.5,203.5 319.5,203.5 299.5,203.5C 299.5,202.5 299.5,201.5 299.5,200.5 Z"/></g>
<g><path style="opacity:1" fill="#23b2a1" d="M 400.5,203.5 C 399.209,203.737 398.209,203.404 397.5,202.5C 399.988,200.612 402.988,199.945 406.5,200.5C 406.5,201.5 406.5,202.5 406.5,203.5C 404.5,203.5 402.5,203.5 400.5,203.5 Z"/></g>
<g><path style="opacity:1" fill="#e0e3ed" d="M 365.5,200.5 C 371.833,200.5 378.167,200.5 384.5,200.5C 384.5,201.5 384.5,202.5 384.5,203.5C 378.167,203.5 371.833,203.5 365.5,203.5C 365.5,202.5 365.5,201.5 365.5,200.5 Z"/></g>
<g><path style="opacity:1" fill="#205a94" d="M 400.5,203.5 C 402.5,203.5 404.5,203.5 406.5,203.5C 406.5,202.5 406.5,201.5 406.5,200.5C 402.988,199.945 399.988,200.612 397.5,202.5C 396.596,201.791 396.263,200.791 396.5,199.5C 400.167,199.5 403.833,199.5 407.5,199.5C 407.5,201.167 407.5,202.833 407.5,204.5C 404.941,204.802 402.607,204.468 400.5,203.5 Z"/></g>
<g><path style="opacity:1" fill="#f5f7fd" d="M 300.5,207.5 C 300.5,208.167 300.5,208.833 300.5,209.5C 275.167,208.833 275.167,208.167 300.5,207.5 Z"/></g>
<g><path style="opacity:1" fill="#8596c4" d="M 300.5,207.5 C 275.167,208.167 275.167,208.833 300.5,209.5C 294.021,210.491 287.354,210.824 280.5,210.5C 280.5,209.167 280.5,207.833 280.5,206.5C 287.354,206.176 294.021,206.509 300.5,207.5 Z"/></g>
<g><path style="opacity:1" fill="#f6a42a" d="M 95.5,231.5 C 94.325,231.719 93.325,231.386 92.5,230.5C 94.0049,229.158 94.6715,227.492 94.5,225.5C 92.857,225.48 91.5237,226.147 90.5,227.5C 89.5,226.833 88.5,226.167 87.5,225.5C 86.3847,227.489 86.718,229.322 88.5,231C 87.9896,232.826 87.1562,232.993 86,231.5C 85.5357,232.094 85.369,232.761 85.5,233.5C 83.9584,230.428 82.1251,227.428 80,224.5C 79.3177,211.732 85.1511,207.565 97.5,212C 98.7014,212.903 99.5348,214.069 100,215.5C 100.667,219.167 100.667,222.833 100,226.5C 98.9509,228.618 97.4509,230.284 95.5,231.5 Z"/></g>
<g><path style="opacity:1" fill="#99a7d1" d="M 224.5,208.5 C 227.768,209.822 231.435,210.489 235.5,210.5C 239.565,210.489 243.232,209.822 246.5,208.5C 247.404,209.209 247.737,210.209 247.5,211.5C 239.5,211.5 231.5,211.5 223.5,211.5C 223.263,210.209 223.596,209.209 224.5,208.5 Z"/></g>
<g><path style="opacity:1" fill="#f9fafe" d="M 224.5,208.5 C 231.833,208.5 239.167,208.5 246.5,208.5C 243.232,209.822 239.565,210.489 235.5,210.5C 231.435,210.489 227.768,209.822 224.5,208.5 Z"/></g>
<g><path style="opacity:1" fill="#e0e4f1" d="M 316.5,215.5 C 307.435,216.136 298.769,215.47 290.5,213.5C 298.656,212.343 306.99,212.177 315.5,213C 316.252,213.671 316.586,214.504 316.5,215.5 Z"/></g>
<g><path style="opacity:1" fill="#ed9298" d="M 320.5,213.5 C 326.868,213.17 333.202,213.504 339.5,214.5C 336.333,214.833 333.167,215.167 330,215.5C 326.424,215.485 323.258,214.818 320.5,213.5 Z"/></g>
<g><path style="opacity:1" fill="#fbbf20" d="M 90.5,213.5 C 96.4964,212.333 98.9964,214.666 98,220.5C 94.9491,223.374 92.2825,223.041 90,219.5C 89.3224,217.402 89.4891,215.402 90.5,213.5 Z"/></g>
<g><path style="opacity:1" fill="#7f90c1" d="M 290.5,213.5 C 298.769,215.47 307.435,216.136 316.5,215.5C 307.682,216.493 298.682,216.827 289.5,216.5C 289.263,215.209 289.596,214.209 290.5,213.5 Z"/></g>
<g><path style="opacity:1" fill="#c0c8e1" d="M 224.5,214.5 C 228.167,214.5 231.833,214.5 235.5,214.5C 235.5,215.833 235.5,217.167 235.5,218.5C 231.818,218.665 228.152,218.499 224.5,218C 223.316,216.855 223.316,215.688 224.5,214.5 Z"/></g>
<g><path style="opacity:1" fill="#db8795" d="M 316.5,219.5 C 333.866,218.848 350.866,219.514 367.5,221.5C 350.134,222.152 333.134,221.486 316.5,219.5 Z"/></g>
<g><path style="opacity:1" fill="#ebec8e" d="M 371.5,219.5 C 374.898,219.18 378.232,219.513 381.5,220.5C 379.833,220.833 378.167,221.167 376.5,221.5C 374.36,221.444 372.694,220.777 371.5,219.5 Z"/></g>
<g><path style="opacity:1" fill="#cb7f93" d="M 384.5,218.5 C 392.167,218.5 399.833,218.5 407.5,218.5C 407.5,219.5 407.5,220.5 407.5,221.5C 399.472,221.831 391.472,221.498 383.5,220.5C 383.863,219.817 384.196,219.15 384.5,218.5 Z"/></g>
<g><path style="opacity:1" fill="#94a3ce" d="M 239.5,222.5 C 234.056,221.892 229.056,222.558 224.5,224.5C 223.596,223.791 223.263,222.791 223.5,221.5C 229.026,221.179 234.36,221.512 239.5,222.5 Z"/></g>
<g><path style="opacity:1" fill="#8090c1" d="M 289.5,219.5 C 292.598,220.821 296.098,221.488 300,221.5C 303.902,221.488 307.402,220.821 310.5,219.5C 311.404,220.209 311.737,221.209 311.5,222.5C 303.833,222.5 296.167,222.5 288.5,222.5C 288.263,221.209 288.596,220.209 289.5,219.5 Z"/></g>
<g><path style="opacity:1" fill="#f6f9fd" d="M 289.5,219.5 C 296.5,219.5 303.5,219.5 310.5,219.5C 307.402,220.821 303.902,221.488 300,221.5C 296.098,221.488 292.598,220.821 289.5,219.5 Z"/></g>
<g><path style="opacity:1" fill="#6d5f98" d="M 316.5,219.5 C 333.134,221.486 350.134,222.152 367.5,221.5C 350.341,222.497 333.008,222.83 315.5,222.5C 315.263,221.209 315.596,220.209 316.5,219.5 Z"/></g>
<g><path style="opacity:1" fill="#f8f9fd" d="M 239.5,222.5 C 234.944,224.442 229.944,225.108 224.5,224.5C 229.056,222.558 234.056,221.892 239.5,222.5 Z"/></g>
<g><path style="opacity:1" fill="#91a1cb" d="M 290.5,225.5 C 298.974,226.832 307.807,227.498 317,227.5C 326.193,227.498 335.026,226.832 343.5,225.5C 344.404,226.209 344.737,227.209 344.5,228.5C 326.167,228.5 307.833,228.5 289.5,228.5C 289.263,227.209 289.596,226.209 290.5,225.5 Z"/></g>
<g><path style="opacity:1" fill="#fafcff" d="M 290.5,225.5 C 308.167,225.5 325.833,225.5 343.5,225.5C 335.026,226.832 326.193,227.498 317,227.5C 307.807,227.498 298.974,226.832 290.5,225.5 Z"/></g>
<g><path style="opacity:1" fill="#425795" d="M 211.5,179.5 C 213.167,179.5 214.833,179.5 216.5,179.5C 233.833,179.5 251.167,179.5 268.5,179.5C 249.597,180.154 231.264,180.821 213.5,181.5C 212.917,217.327 212.25,252.994 211.5,288.5C 210.989,251.997 210.989,215.664 211.5,179.5 Z"/></g>
<g><path style="opacity:1" fill="#dfe6f4" d="M 224.5,228.5 C 231.5,228.5 238.5,228.5 245.5,228.5C 245.5,229.5 245.5,230.5 245.5,231.5C 238.137,231.831 230.803,231.497 223.5,230.5C 223.863,229.817 224.196,229.15 224.5,228.5 Z"/></g>
<g><path style="opacity:1" fill="#e59132" d="M 95.5,231.5 C 95.5,232.5 95.5,233.5 95.5,234.5C 91.9581,234.813 88.6248,234.479 85.5,233.5C 85.369,232.761 85.5357,232.094 86,231.5C 87.1562,232.993 87.9896,232.826 88.5,231C 86.718,229.322 86.3847,227.489 87.5,225.5C 88.5,226.167 89.5,226.833 90.5,227.5C 91.5237,226.147 92.857,225.48 94.5,225.5C 94.6715,227.492 94.0049,229.158 92.5,230.5C 93.325,231.386 94.325,231.719 95.5,231.5 Z"/></g>
<g><path style="opacity:1" fill="#f5fafd" d="M 181.5,230.5 C 189.833,230.5 198.167,230.5 206.5,230.5C 206.5,254.5 206.5,278.5 206.5,302.5C 196,303.395 185.333,303.395 174.5,302.5C 174.5,278.5 174.5,254.5 174.5,230.5C 176.833,230.5 179.167,230.5 181.5,230.5 Z"/></g>
<g><path style="opacity:1" fill="#c5c9d6" d="M 207.5,180.5 C 207.5,221.167 207.5,261.833 207.5,302.5C 207.167,302.5 206.833,302.5 206.5,302.5C 206.5,278.5 206.5,254.5 206.5,230.5C 198.167,230.5 189.833,230.5 181.5,230.5C 189.599,228.769 197.932,228.102 206.5,228.5C 206.5,227.5 206.5,226.5 206.5,225.5C 206.5,211.5 206.5,197.5 206.5,183.5C 206.263,182.209 206.596,181.209 207.5,180.5 Z"/></g>
<g><path style="opacity:1" fill="#e9eff8" d="M 167.5,255.5 C 163.623,255.517 162.957,254.351 165.5,252C 159.811,249.156 154.145,246.322 148.5,243.5C 146.206,241.347 143.54,239.68 140.5,238.5C 135.629,235.232 130.296,234.065 124.5,235C 120.025,237.314 116.358,240.48 113.5,244.5C 112.514,240.03 112.181,235.363 112.5,230.5C 131.5,230.5 150.5,230.5 169.5,230.5C 169.666,237.508 169.5,244.508 169,251.5C 168.79,253.058 168.29,254.391 167.5,255.5 Z"/></g>
<g><path style="opacity:1" fill="#e3e7f1" d="M 279.5,231.5 C 284.833,231.5 290.167,231.5 295.5,231.5C 295.5,232.5 295.5,233.5 295.5,234.5C 290.167,234.5 284.833,234.5 279.5,234.5C 279.5,233.5 279.5,232.5 279.5,231.5 Z"/></g>
<g><path style="opacity:1" fill="#232051" d="M 140.5,238.5 C 134.441,239.785 129.274,242.785 125,247.5C 121.473,253.221 118.473,259.221 116,265.5C 110.742,267.371 107.909,271.038 107.5,276.5C 104.759,273.466 103.259,269.799 103,265.5C 101.56,259.805 102.726,254.805 106.5,250.5C 106.145,249.478 105.478,248.811 104.5,248.5C 105.705,247.314 107.039,247.314 108.5,248.5C 109.302,247.048 109.802,245.382 110,243.5C 110.628,246.954 111.795,247.287 113.5,244.5C 116.358,240.48 120.025,237.314 124.5,235C 130.296,234.065 135.629,235.232 140.5,238.5 Z"/></g>
<g><path style="opacity:1" fill="#b7c0d2" d="M 84.5,236.5 C 88.3507,235.191 92.3507,235.191 96.5,236.5C 94.9095,238.633 92.9095,240.299 90.5,241.5C 88.4293,239.815 86.4293,238.148 84.5,236.5 Z"/></g>
<g><path style="opacity:1" fill="#dfe5ef" d="M 223.5,235.5 C 228.833,235.5 234.167,235.5 239.5,235.5C 239.5,236.5 239.5,237.5 239.5,238.5C 234.167,238.5 228.833,238.5 223.5,238.5C 223.5,237.5 223.5,236.5 223.5,235.5 Z"/></g>
<g><path style="opacity:1" fill="#afbbd8" d="M 302.5,240.5 C 299.232,239.178 295.565,238.511 291.5,238.5C 287.435,238.511 283.768,239.178 280.5,240.5C 279.596,239.791 279.263,238.791 279.5,237.5C 287.5,237.5 295.5,237.5 303.5,237.5C 303.737,238.791 303.404,239.791 302.5,240.5 Z"/></g>
<g><path style="opacity:1" fill="#b5bedb" d="M 360.5,240.5 C 352.361,239.169 343.861,238.502 335,238.5C 326.139,238.502 317.639,239.169 309.5,240.5C 308.596,239.791 308.263,238.791 308.5,237.5C 326.167,237.5 343.833,237.5 361.5,237.5C 361.737,238.791 361.404,239.791 360.5,240.5 Z"/></g>
<g><path style="opacity:1" fill="#567fbc" d="M 140.5,238.5 C 143.54,239.68 146.206,241.347 148.5,243.5C 140.35,242.938 133.85,245.938 129,252.5C 124.937,257.938 122.604,263.938 122,270.5C 122.383,271.056 122.883,271.389 123.5,271.5C 123.665,275.182 123.499,278.848 123,282.5C 121.463,285.573 119.963,288.573 118.5,291.5C 116.858,289.919 114.858,289.253 112.5,289.5C 111.136,287.809 109.803,286.142 108.5,284.5C 107.908,281.873 107.575,279.206 107.5,276.5C 107.909,271.038 110.742,267.371 116,265.5C 118.473,259.221 121.473,253.221 125,247.5C 129.274,242.785 134.441,239.785 140.5,238.5 Z"/></g>
<g><path style="opacity:1" fill="#eef2f8" d="M 302.5,240.5 C 295.167,240.5 287.833,240.5 280.5,240.5C 283.768,239.178 287.435,238.511 291.5,238.5C 295.565,238.511 299.232,239.178 302.5,240.5 Z"/></g>
<g><path style="opacity:1" fill="#edeef6" d="M 360.5,240.5 C 343.5,240.5 326.5,240.5 309.5,240.5C 317.639,239.169 326.139,238.502 335,238.5C 343.861,238.502 352.361,239.169 360.5,240.5 Z"/></g>
<g><path style="opacity:1" fill="#a3b0d3" d="M 325.5,244.5 C 313.452,243.855 301.785,244.522 290.5,246.5C 289.596,245.791 289.263,244.791 289.5,243.5C 301.678,243.172 313.678,243.505 325.5,244.5 Z"/></g>
<g><path style="opacity:1" fill="#252052" d="M 148.5,243.5 C 154.145,246.322 159.811,249.156 165.5,252C 162.957,254.351 163.623,255.517 167.5,255.5C 168.209,256.404 169.209,256.737 170.5,256.5C 172.69,257.748 173.023,259.414 171.5,261.5C 169.77,262.026 168.436,263.026 167.5,264.5C 164.06,265.511 160.726,266.511 157.5,267.5C 145.994,269.177 134.66,268.51 123.5,265.5C 123.5,267.5 123.5,269.5 123.5,271.5C 122.883,271.389 122.383,271.056 122,270.5C 122.604,263.938 124.937,257.938 129,252.5C 133.85,245.938 140.35,242.938 148.5,243.5 Z"/></g>
<g><path style="opacity:1" fill="#dde2f1" d="M 223.5,242.5 C 233.167,242.5 242.833,242.5 252.5,242.5C 252.5,243.5 252.5,244.5 252.5,245.5C 243.161,245.666 233.827,245.5 224.5,245C 223.748,244.329 223.414,243.496 223.5,242.5 Z"/></g>
<g><path style="opacity:1" fill="#278abf" d="M 329.5,243.5 C 333.167,243.5 336.833,243.5 340.5,243.5C 340.67,244.822 340.337,245.989 339.5,247C 336.183,247.498 332.85,247.665 329.5,247.5C 329.5,246.167 329.5,244.833 329.5,243.5 Z"/></g>
<g><path style="opacity:1" fill="#f3f6fa" d="M 325.5,244.5 C 314.215,246.478 302.548,247.145 290.5,246.5C 301.785,244.522 313.452,243.855 325.5,244.5 Z"/></g>
<g><path style="opacity:1" fill="#9a7195" d="M 343.5,252.5 C 336.687,253.491 329.687,253.825 322.5,253.5C 322.5,252.167 322.5,250.833 322.5,249.5C 329.833,249.5 337.167,249.5 344.5,249.5C 344.737,250.791 344.404,251.791 343.5,252.5 Z"/></g>
<g><path style="opacity:1" fill="#8092c1" d="M 367.5,252.5 C 364.913,251.184 361.913,250.517 358.5,250.5C 355.087,250.517 352.087,251.184 349.5,252.5C 348.596,251.791 348.263,250.791 348.5,249.5C 355.167,249.5 361.833,249.5 368.5,249.5C 368.737,250.791 368.404,251.791 367.5,252.5 Z"/></g>
<g><path style="opacity:1" fill="#f8fbfd" d="M 224.5,249.5 C 230.926,248.88 236.926,249.547 242.5,251.5C 236.074,252.12 230.074,251.453 224.5,249.5 Z"/></g>
<g><path style="opacity:1" fill="#e5e7ef" d="M 299.5,250.5 C 323.5,251.167 323.5,251.833 299.5,252.5C 298.167,251.833 298.167,251.167 299.5,250.5 Z"/></g>
<g><path style="opacity:1" fill="#258fbf" d="M 371.5,249.5 C 374.5,249.5 377.5,249.5 380.5,249.5C 380.5,250.5 380.5,251.5 380.5,252.5C 377.5,252.5 374.5,252.5 371.5,252.5C 371.5,251.5 371.5,250.5 371.5,249.5 Z"/></g>
<g><path style="opacity:1" fill="#b8c4e0" d="M 224.5,249.5 C 230.074,251.453 236.074,252.12 242.5,251.5C 236.355,252.49 230.022,252.823 223.5,252.5C 223.263,251.209 223.596,250.209 224.5,249.5 Z"/></g>
<g><path style="opacity:1" fill="#f49192" d="M 343.5,252.5 C 336.8,252.83 330.134,252.497 323.5,251.5C 326.833,251.167 330.167,250.833 333.5,250.5C 337.239,250.514 340.572,251.18 343.5,252.5 Z"/></g>
<g><path style="opacity:1" fill="#dadee9" d="M 367.5,252.5 C 361.5,253.833 355.5,253.833 349.5,252.5C 352.087,251.184 355.087,250.517 358.5,250.5C 361.913,250.517 364.913,251.184 367.5,252.5 Z"/></g>
<g><path style="opacity:1" fill="#b0bad6" d="M 299.5,250.5 C 305.645,249.51 311.978,249.177 318.5,249.5C 318.5,250.833 318.5,252.167 318.5,253.5C 311.978,253.823 305.645,253.49 299.5,252.5C 323.5,251.833 323.5,251.167 299.5,250.5 Z"/></g>
<g><path style="opacity:1" fill="#eb8f95" d="M 362.5,256.5 C 362.5,257.167 362.5,257.833 362.5,258.5C 323.833,257.833 323.833,257.167 362.5,256.5 Z"/></g>
<g><path style="opacity:1" fill="#dee4ef" d="M 253.5,258.5 C 243.442,259.14 233.775,258.473 224.5,256.5C 233.657,255.342 242.991,255.176 252.5,256C 253.252,256.671 253.586,257.504 253.5,258.5 Z"/></g>
<g><path style="opacity:0.85" fill="#697496" d="M 450.5,177.5 C 451.117,177.611 451.617,177.944 452,178.5C 452.255,217.004 452.755,255.504 453.5,294C 453.499,298.68 453.166,303.18 452.5,307.5C 451.915,264.672 451.248,222.005 450.5,179.5C 450.5,178.833 450.5,178.167 450.5,177.5 Z"/></g>
<g><path style="opacity:1" fill="#8193c4" d="M 224.5,256.5 C 233.775,258.473 243.442,259.14 253.5,258.5C 243.681,259.494 233.681,259.827 223.5,259.5C 223.263,258.209 223.596,257.209 224.5,256.5 Z"/></g>
<g><path style="opacity:1" fill="#7e6cae" d="M 307.5,255.5 C 314.508,255.334 321.508,255.5 328.5,256C 329.337,257.011 329.67,258.178 329.5,259.5C 322.167,259.5 314.833,259.5 307.5,259.5C 307.5,258.167 307.5,256.833 307.5,255.5 Z"/></g>
<g><path style="opacity:1" fill="#836593" d="M 362.5,256.5 C 323.833,257.167 323.833,257.833 362.5,258.5C 352.681,259.494 342.681,259.827 332.5,259.5C 332.5,258.167 332.5,256.833 332.5,255.5C 342.681,255.173 352.681,255.506 362.5,256.5 Z"/></g>
<g><path style="opacity:1" fill="#806aad" d="M 364.5,255.5 C 371.5,255.5 378.5,255.5 385.5,255.5C 385.5,256.833 385.5,258.167 385.5,259.5C 378.5,259.5 371.5,259.5 364.5,259.5C 364.5,258.167 364.5,256.833 364.5,255.5 Z"/></g>
<g><path style="opacity:1" fill="#258cbd" d="M 389.5,256.5 C 392.572,256.183 395.572,256.516 398.5,257.5C 397.473,259.024 395.973,259.691 394,259.5C 391.374,259.95 389.874,258.95 389.5,256.5 Z"/></g>
<g><path style="opacity:1" fill="#cfd4ec" d="M 223.5,262.5 C 230.5,262.5 237.5,262.5 244.5,262.5C 244.67,263.822 244.337,264.989 243.5,266C 237.167,266.667 230.833,266.667 224.5,266C 223.663,264.989 223.33,263.822 223.5,262.5 Z"/></g>
<g><path style="opacity:1" fill="#e7ebf4" d="M 338.5,262.5 C 341.167,262.5 343.833,262.5 346.5,262.5C 346.5,263.5 346.5,264.5 346.5,265.5C 343.833,265.5 341.167,265.5 338.5,265.5C 338.5,264.5 338.5,263.5 338.5,262.5 Z"/></g>
<g><path style="opacity:1" fill="#c4cce4" d="M 307.5,262.5 C 316.833,262.5 326.167,262.5 335.5,262.5C 335.5,263.5 335.5,264.5 335.5,265.5C 326.167,265.5 316.833,265.5 307.5,265.5C 307.5,264.5 307.5,263.5 307.5,262.5 Z"/></g>
<g><path style="opacity:1" fill="#e5eaf3" d="M 350.5,262.5 C 369.5,262.5 388.5,262.5 407.5,262.5C 407.5,263.5 407.5,264.5 407.5,265.5C 388.5,265.5 369.5,265.5 350.5,265.5C 350.5,264.5 350.5,263.5 350.5,262.5 Z"/></g>
<g><path style="opacity:1" fill="#f5f8fa" d="M 167.5,264.5 C 168.434,265.568 168.768,266.901 168.5,268.5C 168.5,279.833 168.5,291.167 168.5,302.5C 165.941,302.198 163.607,302.532 161.5,303.5C 160.167,304.833 158.833,304.833 157.5,303.5C 156.89,301.566 155.89,299.899 154.5,298.5C 158.205,288.561 160.205,278.227 160.5,267.5C 159.5,267.5 158.5,267.5 157.5,267.5C 160.726,266.511 164.06,265.511 167.5,264.5 Z"/></g>
<g><path style="opacity:1" fill="#f9d9b7" d="M 157.5,267.5 C 158.5,267.5 159.5,267.5 160.5,267.5C 160.205,278.227 158.205,288.561 154.5,298.5C 152.807,301.19 150.473,303.19 147.5,304.5C 145.983,304.511 144.816,305.177 144,306.5C 142.489,308.862 140.989,311.195 139.5,313.5C 137.833,313.5 136.167,313.5 134.5,313.5C 128.368,312.183 123.201,309.183 119,304.5C 118.202,301.289 118.702,298.289 120.5,295.5C 119.37,294.378 118.703,293.044 118.5,291.5C 119.963,288.573 121.463,285.573 123,282.5C 123.499,278.848 123.665,275.182 123.5,271.5C 123.5,269.5 123.5,267.5 123.5,265.5C 134.66,268.51 145.994,269.177 157.5,267.5 Z"/></g>
<g><path style="opacity:1" fill="#e1e4f2" d="M 298.5,268.5 C 305.833,268.5 313.167,268.5 320.5,268.5C 320.5,269.5 320.5,270.5 320.5,271.5C 313.167,271.5 305.833,271.5 298.5,271.5C 298.5,270.5 298.5,269.5 298.5,268.5 Z"/></g>
<g><path style="opacity:1" fill="#d5dbeb" d="M 236.5,272.5 C 232.029,273.089 228.029,272.423 224.5,270.5C 228.298,269.517 232.298,269.183 236.5,269.5C 236.5,270.5 236.5,271.5 236.5,272.5 Z"/></g>
<g><path style="opacity:1" fill="#647bba" d="M 224.5,270.5 C 228.029,272.423 232.029,273.089 236.5,272.5C 232.366,273.485 228.032,273.818 223.5,273.5C 223.263,272.209 223.596,271.209 224.5,270.5 Z"/></g>
<g><path style="opacity:1" fill="#253c7b" d="M 111.5,274.5 C 113.144,274.286 114.644,274.62 116,275.5C 116.667,278.167 116.667,280.833 116,283.5C 113.918,286.15 112.251,285.816 111,282.5C 110.398,279.779 110.565,277.113 111.5,274.5 Z"/></g>
<g><path style="opacity:1" fill="#f5f6f9" d="M 303.5,275.5 C 299.627,277.43 295.294,278.097 290.5,277.5C 294.373,275.57 298.706,274.903 303.5,275.5 Z"/></g>
<g><path style="opacity:1" fill="#7d8ec2" d="M 303.5,275.5 C 304.404,276.209 304.737,277.209 304.5,278.5C 299.637,278.819 294.97,278.486 290.5,277.5C 295.294,278.097 299.627,277.43 303.5,275.5 Z"/></g>
<g><path style="opacity:1" fill="#5971b0" d="M 296.5,281.5 C 302.645,280.51 308.978,280.177 315.5,280.5C 315.737,281.791 315.404,282.791 314.5,283.5C 308.926,281.547 302.926,280.88 296.5,281.5 Z"/></g>
<g><path style="opacity:1" fill="#d0d7e7" d="M 296.5,281.5 C 302.926,280.88 308.926,281.547 314.5,283.5C 306.324,284.821 297.991,284.821 289.5,283.5C 289.709,282.914 290.043,282.414 290.5,282C 292.473,281.505 294.473,281.338 296.5,281.5 Z"/></g>
<g><path style="opacity:1" fill="#f6908e" d="M 319.5,281.5 C 327.903,280.866 335.903,281.533 343.5,283.5C 335.097,284.134 327.097,283.467 319.5,281.5 Z"/></g>
<g><path style="opacity:1" fill="#9373b4" d="M 347.5,281.5 C 357.833,281.5 368.167,281.5 378.5,281.5C 378.5,282.5 378.5,283.5 378.5,284.5C 368.167,284.5 357.833,284.5 347.5,284.5C 347.5,283.5 347.5,282.5 347.5,281.5 Z"/></g>
<g><path style="opacity:1" fill="#a8779c" d="M 319.5,281.5 C 327.097,283.467 335.097,284.134 343.5,283.5C 335.35,284.493 327.017,284.826 318.5,284.5C 318.263,283.209 318.596,282.209 319.5,281.5 Z"/></g>
<g><path style="opacity:1" fill="#b3beda" d="M 314.5,289.5 C 312.429,288.191 309.929,287.525 307,287.5C 304.071,287.525 301.571,288.191 299.5,289.5C 298.596,288.791 298.263,287.791 298.5,286.5C 304.167,286.5 309.833,286.5 315.5,286.5C 315.737,287.791 315.404,288.791 314.5,289.5 Z"/></g>
<g><path style="opacity:1" fill="#fafbfd" d="M 314.5,289.5 C 309.5,289.5 304.5,289.5 299.5,289.5C 301.571,288.191 304.071,287.525 307,287.5C 309.929,287.525 312.429,288.191 314.5,289.5 Z"/></g>
<g><path style="opacity:1" fill="#aeb4cf" d="M 108.5,284.5 C 109.803,286.142 111.136,287.809 112.5,289.5C 112.5,293.833 112.5,298.167 112.5,302.5C 110.784,302.629 109.117,302.962 107.5,303.5C 108.458,297.256 108.791,290.923 108.5,284.5 Z"/></g>
<g><path style="opacity:1" fill="#e2e7f1" d="M 327.5,286.5 C 353.833,286.5 380.167,286.5 406.5,286.5C 406.5,287.5 406.5,288.5 406.5,289.5C 377.492,289.833 348.492,289.5 319.5,288.5C 322.306,287.832 324.972,287.166 327.5,286.5 Z"/></g>
<g><path style="opacity:1" fill="#566aa4" d="M 327.5,286.5 C 324.972,287.166 322.306,287.832 319.5,288.5C 348.492,289.5 377.492,289.833 406.5,289.5C 377.338,290.498 348.005,290.831 318.5,290.5C 318.5,289.167 318.5,287.833 318.5,286.5C 321.5,286.5 324.5,286.5 327.5,286.5 Z"/></g>
<g><path style="opacity:1" fill="#e2e6f2" d="M 305.5,295.5 C 300.056,296.108 295.056,295.442 290.5,293.5C 295.305,292.513 300.305,292.179 305.5,292.5C 305.5,293.5 305.5,294.5 305.5,295.5 Z"/></g>
<g><path style="opacity:1" fill="#3a4777" d="M 450.5,179.5 C 451.248,222.005 451.915,264.672 452.5,307.5C 453.35,316.822 453.517,326.155 453,335.5C 452.722,336.416 452.222,337.082 451.5,337.5C 451.411,326.816 450.911,316.15 450,305.5C 449.5,314.16 449.334,322.827 449.5,331.5C 448.501,281.669 448.168,231.669 448.5,181.5C 449.167,181.5 449.5,181.167 449.5,180.5C 450.167,180.5 450.5,180.167 450.5,179.5 Z"/></g>
<g><path style="opacity:1" fill="#aeb2ce" d="M 171.5,261.5 C 171.5,275.167 171.5,288.833 171.5,302.5C 169.841,291.37 168.841,280.037 168.5,268.5C 168.768,266.901 168.434,265.568 167.5,264.5C 168.436,263.026 169.77,262.026 171.5,261.5 Z"/></g>
<g><path style="opacity:1" fill="#7284bb" d="M 290.5,293.5 C 295.056,295.442 300.056,296.108 305.5,295.5C 300.36,296.488 295.026,296.821 289.5,296.5C 289.263,295.209 289.596,294.209 290.5,293.5 Z"/></g>
<g><path style="opacity:1" fill="#d98798" d="M 309.5,299.5 C 317.833,299.5 326.167,299.5 334.5,299.5C 334.5,300.5 334.5,301.5 334.5,302.5C 326.833,302.5 319.167,302.5 311.5,302.5C 309.952,302.179 309.285,301.179 309.5,299.5 Z"/></g>
<g><path style="opacity:1" fill="#24a49e" d="M 338.5,299.5 C 344.833,299.5 351.167,299.5 357.5,299.5C 357.5,300.5 357.5,301.5 357.5,302.5C 354.5,302.5 351.5,302.5 348.5,302.5C 345.167,302.5 341.833,302.5 338.5,302.5C 338.5,301.5 338.5,300.5 338.5,299.5 Z"/></g>
<g><path style="opacity:1" fill="#e3e6f3" d="M 289.5,299.5 C 294.5,299.5 299.5,299.5 304.5,299.5C 304.5,300.5 304.5,301.5 304.5,302.5C 299.5,302.5 294.5,302.5 289.5,302.5C 289.5,301.5 289.5,300.5 289.5,299.5 Z"/></g>
<g><path style="opacity:1" fill="#288cc1" d="M 362.5,299.5 C 365.833,299.5 369.167,299.5 372.5,299.5C 372.5,300.5 372.5,301.5 372.5,302.5C 369.167,302.5 365.833,302.5 362.5,302.5C 362.5,301.5 362.5,300.5 362.5,299.5 Z"/></g>
<g><path style="opacity:1" fill="#6d77b0" d="M 154.5,298.5 C 155.89,299.899 156.89,301.566 157.5,303.5C 157.5,304.5 157.5,305.5 157.5,306.5C 156.5,306.5 155.5,306.5 154.5,306.5C 152.5,306.167 150.5,305.833 148.5,305.5C 147.833,305.5 147.5,305.167 147.5,304.5C 150.473,303.19 152.807,301.19 154.5,298.5 Z"/></g>
<g><path style="opacity:1" fill="#eef7f4" d="M 112.5,289.5 C 114.858,289.253 116.858,289.919 118.5,291.5C 118.703,293.044 119.37,294.378 120.5,295.5C 118.702,298.289 118.202,301.289 119,304.5C 123.201,309.183 128.368,312.183 134.5,313.5C 133.081,317.015 132.414,320.681 132.5,324.5C 128.853,324.378 126.019,322.712 124,319.5C 120.28,314.62 116.78,309.62 113.5,304.5C 116.186,303.012 115.853,302.345 112.5,302.5C 112.5,298.167 112.5,293.833 112.5,289.5 Z"/></g>
<g><path style="opacity:1" fill="#bae3f9" d="M 161.5,303.5 C 162.552,303.351 163.552,303.517 164.5,304C 172.384,310.06 180.384,315.893 188.5,321.5C 187.716,336.366 186.382,351.033 184.5,365.5C 175.141,368.85 165.807,372.184 156.5,375.5C 156.861,355.816 157.694,336.149 159,316.5C 159.05,311.917 159.883,307.584 161.5,303.5 Z"/></g>
<g><path style="opacity:1" fill="#c9e6f4" d="M 168.5,268.5 C 168.841,280.037 169.841,291.37 171.5,302.5C 172.5,302.5 173.5,302.5 174.5,302.5C 185.333,303.395 196,303.395 206.5,302.5C 206.833,302.5 207.167,302.5 207.5,302.5C 208.833,302.5 210.167,302.5 211.5,302.5C 234.673,302.169 257.673,302.502 280.5,303.5C 280.586,304.496 280.252,305.329 279.5,306C 271.139,311.178 262.805,316.344 254.5,321.5C 232.372,320.184 210.372,320.184 188.5,321.5C 180.384,315.893 172.384,310.06 164.5,304C 163.552,303.517 162.552,303.351 161.5,303.5C 163.607,302.532 165.941,302.198 168.5,302.5C 168.5,291.167 168.5,279.833 168.5,268.5 Z"/></g>
<g><path style="opacity:1" fill="#344b97" d="M 309.5,299.5 C 317.984,298.507 326.651,298.174 335.5,298.5C 335.67,303.275 336.67,303.608 338.5,299.5C 338.5,300.5 338.5,301.5 338.5,302.5C 341.833,302.5 345.167,302.5 348.5,302.5C 345.023,303.323 341.356,303.823 337.5,304C 343.016,304.173 348.349,304.673 353.5,305.5C 344.167,305.5 334.833,305.5 325.5,305.5C 325.5,306.5 325.5,307.5 325.5,308.5C 332.5,308.5 339.5,308.5 346.5,308.5C 330.5,309.833 314.5,309.833 298.5,308.5C 305.833,308.5 313.167,308.5 320.5,308.5C 320.5,307.5 320.5,306.5 320.5,305.5C 313.167,305.5 305.833,305.5 298.5,305.5C 305.655,304.671 312.989,304.171 320.5,304C 317.305,303.819 314.305,303.319 311.5,302.5C 319.167,302.5 326.833,302.5 334.5,302.5C 334.5,301.5 334.5,300.5 334.5,299.5C 326.167,299.5 317.833,299.5 309.5,299.5 Z"/></g>
<g><path style="opacity:1" fill="#6971b3" d="M 112.5,302.5 C 115.853,302.345 116.186,303.012 113.5,304.5C 103.939,305.443 97.6058,310.443 94.5,319.5C 91.7732,323.316 90.4398,327.65 90.5,332.5C 91.497,338.494 92.497,344.494 93.5,350.5C 94.3143,354.116 95.6477,357.449 97.5,360.5C 98.59,368.765 100.257,376.765 102.5,384.5C 102.342,387.902 102.676,391.236 103.5,394.5C 103.5,395.5 103.5,396.5 103.5,397.5C 101.585,397.784 99.9187,397.451 98.5,396.5C 98.477,394.073 97.977,391.74 97,389.5C 94.7429,385.317 92.7429,380.984 91,376.5C 89.8025,361.24 87.1358,346.24 83,331.5C 80.0171,324.484 75.8504,318.484 70.5,313.5C 71.0283,312.279 71.695,311.113 72.5,310C 83.97,306.755 95.6366,304.588 107.5,303.5C 109.117,302.962 110.784,302.629 112.5,302.5 Z"/></g>
<g><path style="opacity:1" fill="#8fc6eb" d="M 280.5,303.5 C 281.15,303.804 281.817,304.137 282.5,304.5C 283.498,313.475 283.832,322.475 283.5,331.5C 282.566,332.568 282.232,333.901 282.5,335.5C 281.549,336.919 281.216,338.585 281.5,340.5C 281.214,352.705 280.214,364.705 278.5,376.5C 276.436,376.313 274.436,375.813 272.5,375C 266.623,371.815 260.623,368.815 254.5,366C 246.323,365.829 238.323,365.329 230.5,364.5C 237.5,364.5 244.5,364.5 251.5,364.5C 252.974,350.213 253.974,335.879 254.5,321.5C 262.805,316.344 271.139,311.178 279.5,306C 280.252,305.329 280.586,304.496 280.5,303.5 Z"/></g>
<g><path style="opacity:1" fill="#dddfa4" d="M 357.5,305.5 C 362.833,305.5 368.167,305.5 373.5,305.5C 373.5,306.5 373.5,307.5 373.5,308.5C 368.167,308.5 362.833,308.5 357.5,308.5C 357.5,307.5 357.5,306.5 357.5,305.5 Z"/></g>
<g><path style="opacity:1" fill="#189f4d" d="M 113.5,304.5 C 116.78,309.62 120.28,314.62 124,319.5C 126.019,322.712 128.853,324.378 132.5,324.5C 132.414,320.681 133.081,317.015 134.5,313.5C 136.167,313.5 137.833,313.5 139.5,313.5C 140.757,316.096 141.924,318.763 143,321.5C 145.75,316.51 147.583,311.177 148.5,305.5C 150.5,305.833 152.5,306.167 154.5,306.5C 156.393,312.545 157.06,318.879 156.5,325.5C 155.732,326.263 155.232,327.263 155,328.5C 154.5,335.826 154.334,343.159 154.5,350.5C 153.493,359.144 153.327,367.811 154,376.5C 154.708,377.381 155.542,378.047 156.5,378.5C 159.962,379.482 163.629,379.815 167.5,379.5C 167.5,381.5 167.5,383.5 167.5,385.5C 157.39,384.742 147.723,382.242 138.5,378C 132.735,374.738 129.069,369.905 127.5,363.5C 128.812,362.855 129.812,361.855 130.5,360.5C 124.349,346.857 117.182,333.857 109,321.5C 104.62,316.657 99.9538,316.323 95,320.5C 94.6012,320.272 94.4346,319.938 94.5,319.5C 97.6058,310.443 103.939,305.443 113.5,304.5 Z"/></g>
<g><path style="opacity:1" fill="#edf7f1" d="M 147.5,304.5 C 147.5,305.167 147.833,305.5 148.5,305.5C 147.583,311.177 145.75,316.51 143,321.5C 141.924,318.763 140.757,316.096 139.5,313.5C 140.989,311.195 142.489,308.862 144,306.5C 144.816,305.177 145.983,304.511 147.5,304.5 Z"/></g>
<g><path style="opacity:1" fill="#e1e6f3" d="M 298.5,305.5 C 305.833,305.5 313.167,305.5 320.5,305.5C 320.5,306.5 320.5,307.5 320.5,308.5C 313.167,308.5 305.833,308.5 298.5,308.5C 298.5,307.5 298.5,306.5 298.5,305.5 Z"/></g>
<g><path style="opacity:1" fill="#d3889b" d="M 353.5,305.5 C 353.5,306.5 353.5,307.5 353.5,308.5C 351.167,308.5 348.833,308.5 346.5,308.5C 339.5,308.5 332.5,308.5 325.5,308.5C 325.5,307.5 325.5,306.5 325.5,305.5C 334.833,305.5 344.167,305.5 353.5,305.5 Z"/></g>
<g><path style="opacity:1" fill="#dde3f1" d="M 298.5,311.5 C 317.5,311.5 336.5,311.5 355.5,311.5C 355.5,312.5 355.5,313.5 355.5,314.5C 336.5,314.5 317.5,314.5 298.5,314.5C 298.5,313.5 298.5,312.5 298.5,311.5 Z"/></g>
<g><path style="opacity:1" fill="#dfe5f1" d="M 367.5,311.5 C 380.833,311.5 394.167,311.5 407.5,311.5C 407.5,312.5 407.5,313.5 407.5,314.5C 394.167,314.5 380.833,314.5 367.5,314.5C 367.5,313.5 367.5,312.5 367.5,311.5 Z"/></g>
<g><path style="opacity:1" fill="#2d3179" d="M 70.5,313.5 C 75.8504,318.484 80.0171,324.484 83,331.5C 87.1358,346.24 89.8025,361.24 91,376.5C 92.7429,380.984 94.7429,385.317 97,389.5C 97.977,391.74 98.477,394.073 98.5,396.5C 93.5,396.5 88.5,396.5 83.5,396.5C 83.7373,395.209 83.404,394.209 82.5,393.5C 77.8342,376.337 72.6675,359.337 67,342.5C 65.7271,332.489 66.8937,322.822 70.5,313.5 Z"/></g>
<g><path style="opacity:1" fill="#f1f9f8" d="M 127.5,363.5 C 120.619,366.104 114.285,369.437 108.5,373.5C 106.708,373.634 105.042,373.301 103.5,372.5C 102.29,367.749 100.29,363.416 97.5,359.5C 96.9408,356.057 95.6074,353.057 93.5,350.5C 92.497,344.494 91.497,338.494 90.5,332.5C 90.4398,327.65 91.7732,323.316 94.5,319.5C 94.4346,319.938 94.6012,320.272 95,320.5C 99.9538,316.323 104.62,316.657 109,321.5C 117.182,333.857 124.349,346.857 130.5,360.5C 129.812,361.855 128.812,362.855 127.5,363.5 Z"/></g>
<g><path style="opacity:1" fill="#a5d7f4" d="M 254.5,321.5 C 253.974,335.879 252.974,350.213 251.5,364.5C 244.5,364.5 237.5,364.5 230.5,364.5C 230.5,363.167 230.5,361.833 230.5,360.5C 233.119,360.768 235.619,360.435 238,359.5C 238.499,355.848 238.665,352.182 238.5,348.5C 238.5,346.5 238.5,344.5 238.5,342.5C 227.5,342.5 216.5,342.5 205.5,342.5C 205.5,343.833 205.5,345.167 205.5,346.5C 204.514,350.97 204.181,355.637 204.5,360.5C 205.5,360.5 206.5,360.5 207.5,360.5C 209.735,360.205 211.735,360.539 213.5,361.5C 213.38,362.586 212.713,363.253 211.5,363.5C 202.588,365.215 193.588,365.882 184.5,365.5C 186.382,351.033 187.716,336.366 188.5,321.5C 210.372,320.184 232.372,320.184 254.5,321.5 Z"/></g>
<g><path style="opacity:1" fill="#51659a" d="M 448.5,181.5 C 448.168,231.669 448.501,281.669 449.5,331.5C 430.674,332.497 411.674,332.83 392.5,332.5C 358.663,332.832 324.996,332.498 291.5,331.5C 343.5,331.5 395.5,331.5 447.5,331.5C 448.159,281.783 447.493,232.283 445.5,183C 446.244,181.961 447.244,181.461 448.5,181.5 Z"/></g>
<g><path style="opacity:1" fill="#40ad7b" d="M 156.5,325.5 C 156.039,333.997 155.373,342.331 154.5,350.5C 154.334,343.159 154.5,335.826 155,328.5C 155.232,327.263 155.732,326.263 156.5,325.5 Z"/></g>
<g><path style="opacity:1" fill="#243468" d="M 451.5,337.5 C 451.167,338.5 450.5,339.167 449.5,339.5C 393.833,339.5 338.167,339.5 282.5,339.5C 282.5,338.167 282.5,336.833 282.5,335.5C 282.232,333.901 282.566,332.568 283.5,331.5C 284.833,331.5 286.167,331.5 287.5,331.5C 289.931,332.741 289.931,333.908 287.5,335C 340.541,335.171 393.541,335.671 446.5,336.5C 447.386,335.675 447.719,334.675 447.5,333.5C 428.992,333.83 410.659,333.497 392.5,332.5C 411.674,332.83 430.674,332.497 449.5,331.5C 449.334,322.827 449.5,314.16 450,305.5C 450.911,316.15 451.411,326.816 451.5,337.5 Z"/></g>
<g><path style="opacity:1" fill="#374678" d="M 287.5,331.5 C 288.833,331.5 290.167,331.5 291.5,331.5C 324.996,332.498 358.663,332.832 392.5,332.5C 410.659,333.497 428.992,333.83 447.5,333.5C 447.719,334.675 447.386,335.675 446.5,336.5C 393.541,335.671 340.541,335.171 287.5,335C 289.931,333.908 289.931,332.741 287.5,331.5 Z"/></g>
<g><path style="opacity:0.99" fill="#787f9c" d="M 282.5,335.5 C 282.5,336.833 282.5,338.167 282.5,339.5C 338.167,339.5 393.833,339.5 449.5,339.5C 447.735,340.461 445.735,340.795 443.5,340.5C 389.5,340.5 335.5,340.5 281.5,340.5C 281.216,338.585 281.549,336.919 282.5,335.5 Z"/></g>
<g><path style="opacity:1" fill="#65a6d8" d="M 238.5,348.5 C 237.313,351.946 236.646,355.613 236.5,359.5C 234.167,359.5 231.833,359.5 229.5,359.5C 229.489,361.547 229.156,363.547 228.5,365.5C 230.625,370.719 231.958,376.052 232.5,381.5C 233.324,384.764 233.658,388.098 233.5,391.5C 236.85,391.335 240.183,391.502 243.5,392C 245.321,394.137 247.654,394.97 250.5,394.5C 250.5,395.5 250.5,396.5 250.5,397.5C 234.819,397.833 219.152,397.499 203.5,396.5C 203.624,395.893 203.957,395.56 204.5,395.5C 205.756,395.539 206.756,395.039 207.5,394C 200.842,393.5 194.175,393.334 187.5,393.5C 189.607,392.532 191.941,392.198 194.5,392.5C 202.403,392.864 210.07,392.197 217.5,390.5C 218.147,389.726 218.48,388.726 218.5,387.5C 217.774,378.025 216.441,369.358 214.5,361.5C 214.167,361.5 213.833,361.5 213.5,361.5C 211.735,360.539 209.735,360.205 207.5,360.5C 205.652,356.146 204.985,351.48 205.5,346.5C 205.5,345.167 205.5,343.833 205.5,342.5C 216.5,342.5 227.5,342.5 238.5,342.5C 238.5,344.5 238.5,346.5 238.5,348.5 Z"/></g>
<g><path style="opacity:0.998" fill="#f0f1f3" d="M 281.5,340.5 C 335.5,340.5 389.5,340.5 443.5,340.5C 437.196,352.435 430.363,364.102 423,375.5C 416.608,384.041 410.108,392.375 403.5,400.5C 403.5,399.5 403.5,398.5 403.5,397.5C 374.167,397.5 344.833,397.5 315.5,397.5C 315.5,397.167 315.5,396.833 315.5,396.5C 315.884,392.414 316.717,388.414 318,384.5C 319.011,383.663 320.178,383.33 321.5,383.5C 321.5,382.5 321.5,381.5 321.5,380.5C 322.434,379.432 322.768,378.099 322.5,376.5C 320.167,376.5 317.833,376.5 315.5,376.5C 316.16,373.679 317.827,371.679 320.5,370.5C 321.47,367.226 322.97,364.226 325,361.5C 325.498,358.183 325.665,354.85 325.5,351.5C 321.669,351.249 318.336,352.416 315.5,355C 312.123,358.931 309.123,363.098 306.5,367.5C 305.778,367.918 305.278,368.584 305,369.5C 301.342,364.663 296.509,362.33 290.5,362.5C 291.493,368.493 294.493,373.16 299.5,376.5C 298.209,376.263 297.209,376.596 296.5,377.5C 294.692,378.918 294.025,380.918 294.5,383.5C 295.675,383.281 296.675,383.614 297.5,384.5C 298.933,387.333 299.6,390.333 299.5,393.5C 299.5,394.833 299.5,396.167 299.5,397.5C 283.167,397.5 266.833,397.5 250.5,397.5C 250.5,396.5 250.5,395.5 250.5,394.5C 247.654,394.97 245.321,394.137 243.5,392C 240.183,391.502 236.85,391.335 233.5,391.5C 233.658,388.098 233.324,384.764 232.5,381.5C 246.799,379.68 261.466,378.846 276.5,379C 277.756,378.583 278.423,377.75 278.5,376.5C 280.214,364.705 281.214,352.705 281.5,340.5 Z"/></g>
<g><path style="opacity:1" fill="#3f6896" d="M 205.5,346.5 C 204.985,351.48 205.652,356.146 207.5,360.5C 206.5,360.5 205.5,360.5 204.5,360.5C 204.181,355.637 204.514,350.97 205.5,346.5 Z"/></g>
<g><path style="opacity:1" fill="#25636a" d="M 315.5,376.5 C 313.833,376.5 312.167,376.5 310.5,376.5C 312.234,372.7 314.234,369.034 316.5,365.5C 316.154,364.304 315.654,364.304 315,365.5C 313.156,368.528 311.322,371.528 309.5,374.5C 308.25,374.423 307.417,373.756 307,372.5C 306.506,370.866 306.34,369.199 306.5,367.5C 309.123,363.098 312.123,358.931 315.5,355C 318.336,352.416 321.669,351.249 325.5,351.5C 325.665,354.85 325.498,358.183 325,361.5C 322.97,364.226 321.47,367.226 320.5,370.5C 317.827,371.679 316.16,373.679 315.5,376.5 Z"/></g>
<g><path style="opacity:1" fill="#7e9aac" d="M 93.5,350.5 C 95.6074,353.057 96.9408,356.057 97.5,359.5C 97.5,359.833 97.5,360.167 97.5,360.5C 95.6477,357.449 94.3143,354.116 93.5,350.5 Z"/></g>
<g><path style="opacity:1" fill="#429ba6" d="M 306.5,367.5 C 306.34,369.199 306.506,370.866 307,372.5C 307.417,373.756 308.25,374.423 309.5,374.5C 309.167,375.167 308.833,375.833 308.5,376.5C 305.5,376.5 302.5,376.5 299.5,376.5C 294.493,373.16 291.493,368.493 290.5,362.5C 296.509,362.33 301.342,364.663 305,369.5C 305.278,368.584 305.778,367.918 306.5,367.5 Z"/></g>
<g><path style="opacity:1" fill="#77b5e0" d="M 157.5,303.5 C 158.833,304.833 160.167,304.833 161.5,303.5C 159.883,307.584 159.05,311.917 159,316.5C 157.694,336.149 156.861,355.816 156.5,375.5C 165.807,372.184 175.141,368.85 184.5,365.5C 193.588,365.882 202.588,365.215 211.5,363.5C 212.713,363.253 213.38,362.586 213.5,361.5C 213.833,361.5 214.167,361.5 214.5,361.5C 214.76,367.172 215.093,372.839 215.5,378.5C 195.833,378.5 176.167,378.5 156.5,378.5C 155.542,378.047 154.708,377.381 154,376.5C 153.327,367.811 153.493,359.144 154.5,350.5C 155.373,342.331 156.039,333.997 156.5,325.5C 157.06,318.879 156.393,312.545 154.5,306.5C 155.5,306.5 156.5,306.5 157.5,306.5C 157.5,305.5 157.5,304.5 157.5,303.5 Z"/></g>
<g><path style="opacity:1" fill="#f8cd9c" d="M 127.5,363.5 C 129.069,369.905 132.735,374.738 138.5,378C 147.723,382.242 157.39,384.742 167.5,385.5C 174.837,385.872 182.171,386.372 189.5,387C 191.766,388.426 193.432,390.26 194.5,392.5C 191.941,392.198 189.607,392.532 187.5,393.5C 181.974,393.179 176.64,393.512 171.5,394.5C 159.416,396.449 147.083,397.116 134.5,396.5C 133.5,396.5 132.5,396.5 131.5,396.5C 120.887,391.887 113.22,384.22 108.5,373.5C 114.285,369.437 120.619,366.104 127.5,363.5 Z"/></g>
<g><path style="opacity:1" fill="#7ab6e3" d="M 238.5,348.5 C 238.665,352.182 238.499,355.848 238,359.5C 235.619,360.435 233.119,360.768 230.5,360.5C 230.5,361.833 230.5,363.167 230.5,364.5C 238.323,365.329 246.323,365.829 254.5,366C 260.623,368.815 266.623,371.815 272.5,375C 274.436,375.813 276.436,376.313 278.5,376.5C 278.423,377.75 277.756,378.583 276.5,379C 261.466,378.846 246.799,379.68 232.5,381.5C 231.958,376.052 230.625,370.719 228.5,365.5C 229.156,363.547 229.489,361.547 229.5,359.5C 231.833,359.5 234.167,359.5 236.5,359.5C 236.646,355.613 237.313,351.946 238.5,348.5 Z"/></g>
<g><path style="opacity:1" fill="#36a161" d="M 97.5,359.5 C 100.29,363.416 102.29,367.749 103.5,372.5C 102.517,376.298 102.183,380.298 102.5,384.5C 100.257,376.765 98.59,368.765 97.5,360.5C 97.5,360.167 97.5,359.833 97.5,359.5 Z"/></g>
<g><path style="opacity:1" fill="#a9c7ca" d="M 310.5,376.5 C 309.833,376.5 309.167,376.5 308.5,376.5C 308.833,375.833 309.167,375.167 309.5,374.5C 311.322,371.528 313.156,368.528 315,365.5C 315.654,364.304 316.154,364.304 316.5,365.5C 314.234,369.034 312.234,372.7 310.5,376.5 Z"/></g>
<g><path style="opacity:1" fill="#1aa14d" d="M 103.5,372.5 C 105.042,373.301 106.708,373.634 108.5,373.5C 113.22,384.22 120.887,391.887 131.5,396.5C 121.903,397.097 112.57,396.431 103.5,394.5C 102.676,391.236 102.342,387.902 102.5,384.5C 102.183,380.298 102.517,376.298 103.5,372.5 Z"/></g>
<g><path style="opacity:1" fill="#cec8a4" d="M 296.5,377.5 C 297.209,376.596 298.209,376.263 299.5,376.5C 302.5,376.5 305.5,376.5 308.5,376.5C 309.167,376.5 309.833,376.5 310.5,376.5C 312.167,376.5 313.833,376.5 315.5,376.5C 317.833,376.5 320.167,376.5 322.5,376.5C 322.768,378.099 322.434,379.432 321.5,380.5C 321.5,379.5 321.5,378.5 321.5,377.5C 313.167,377.5 304.833,377.5 296.5,377.5 Z"/></g>
<g><path style="opacity:1" fill="#fbab2d" d="M 296.5,377.5 C 304.833,377.5 313.167,377.5 321.5,377.5C 321.5,378.5 321.5,379.5 321.5,380.5C 321.5,381.5 321.5,382.5 321.5,383.5C 320.178,383.33 319.011,383.663 318,384.5C 316.717,388.414 315.884,392.414 315.5,396.5C 310.5,396.5 305.5,396.5 300.5,396.5C 300.737,395.209 300.404,394.209 299.5,393.5C 299.6,390.333 298.933,387.333 297.5,384.5C 296.675,383.614 295.675,383.281 294.5,383.5C 294.025,380.918 294.692,378.918 296.5,377.5 Z"/></g>
<g><path style="opacity:1" fill="#dbe0e1" d="M 156.5,378.5 C 176.167,378.5 195.833,378.5 215.5,378.5C 216.341,380.379 216.675,382.379 216.5,384.5C 208.547,384.382 200.88,382.882 193.5,380C 184.84,379.5 176.173,379.334 167.5,379.5C 163.629,379.815 159.962,379.482 156.5,378.5 Z"/></g>
<g><path style="opacity:1" fill="#e7ba8f" d="M 167.5,379.5 C 176.173,379.334 184.84,379.5 193.5,380C 200.88,382.882 208.547,384.382 216.5,384.5C 217.15,386.435 217.483,388.435 217.5,390.5C 210.07,392.197 202.403,392.864 194.5,392.5C 193.432,390.26 191.766,388.426 189.5,387C 182.171,386.372 174.837,385.872 167.5,385.5C 167.5,383.5 167.5,381.5 167.5,379.5 Z"/></g>
<g><path style="opacity:1" fill="#446996" d="M 217.5,390.5 C 217.483,388.435 217.15,386.435 216.5,384.5C 216.675,382.379 216.341,380.379 215.5,378.5C 215.093,372.839 214.76,367.172 214.5,361.5C 216.441,369.358 217.774,378.025 218.5,387.5C 218.48,388.726 218.147,389.726 217.5,390.5 Z"/></g>
<g><path style="opacity:1" fill="#46497c" d="M 187.5,393.5 C 194.175,393.334 200.842,393.5 207.5,394C 206.756,395.039 205.756,395.539 204.5,395.5C 193.598,394.181 182.598,394.181 171.5,395.5C 171.5,395.167 171.5,394.833 171.5,394.5C 176.64,393.512 181.974,393.179 187.5,393.5 Z"/></g>
<g><path style="opacity:1" fill="#b6b7c9" d="M 82.5,393.5 C 83.404,394.209 83.7373,395.209 83.5,396.5C 73.3468,397.494 63.0135,397.828 52.5,397.5C 62.3194,396.506 72.3194,396.173 82.5,396.5C 82.5,395.5 82.5,394.5 82.5,393.5 Z"/></g>
<g><path style="opacity:1" fill="#499579" d="M 103.5,394.5 C 112.57,396.431 121.903,397.097 131.5,396.5C 132.5,396.5 133.5,396.5 134.5,396.5C 134.5,396.833 134.5,397.167 134.5,397.5C 124.167,397.5 113.833,397.5 103.5,397.5C 103.5,396.5 103.5,395.5 103.5,394.5 Z"/></g>
<g><path style="opacity:1" fill="#c9b4a6" d="M 171.5,394.5 C 171.5,394.833 171.5,395.167 171.5,395.5C 171.5,396.167 171.5,396.833 171.5,397.5C 159.167,397.5 146.833,397.5 134.5,397.5C 134.5,397.167 134.5,396.833 134.5,396.5C 147.083,397.116 159.416,396.449 171.5,394.5 Z"/></g>
<g><path style="opacity:1" fill="#e0b279" d="M 299.5,393.5 C 300.404,394.209 300.737,395.209 300.5,396.5C 305.5,396.5 310.5,396.5 315.5,396.5C 315.5,396.833 315.5,397.167 315.5,397.5C 310.167,397.5 304.833,397.5 299.5,397.5C 299.5,396.167 299.5,394.833 299.5,393.5 Z"/></g>
<g><path style="opacity:1" fill="#5a5a86" d="M 83.5,396.5 C 88.5,396.5 93.5,396.5 98.5,396.5C 99.9187,397.451 101.585,397.784 103.5,397.5C 113.833,397.5 124.167,397.5 134.5,397.5C 146.833,397.5 159.167,397.5 171.5,397.5C 156.961,398.087 142.294,398.92 127.5,400C 219.499,400.5 311.499,400.667 403.5,400.5C 286.167,401.833 168.833,401.833 51.5,400.5C 50.6618,400.158 50.3284,399.492 50.5,398.5C 51.1667,398.167 51.8333,397.833 52.5,397.5C 63.0135,397.828 73.3468,397.494 83.5,396.5 Z"/></g>
<g><path style="opacity:1" fill="#2c296c" d="M 204.5,395.5 C 203.957,395.56 203.624,395.893 203.5,396.5C 219.152,397.499 234.819,397.833 250.5,397.5C 266.833,397.5 283.167,397.5 299.5,397.5C 304.833,397.5 310.167,397.5 315.5,397.5C 344.833,397.5 374.167,397.5 403.5,397.5C 403.5,398.5 403.5,399.5 403.5,400.5C 311.499,400.667 219.499,400.5 127.5,400C 142.294,398.92 156.961,398.087 171.5,397.5C 171.5,396.833 171.5,396.167 171.5,395.5C 182.598,394.181 193.598,394.181 204.5,395.5 Z"/></g>
<g><path style="opacity:1" fill="#2a2a67" d="M 51.5,400.5 C 51.6107,399.883 51.944,399.383 52.5,399C 70.5,398.333 88.5,398.333 106.5,399C 88.1698,399.683 69.8365,400.183 51.5,400.5 Z"/></g>
</svg>
